<svg viewBox="0 0 24 24" xmlns="http://www.w3.org/2000/svg"
     width="24" height="24" fill="currentColor">

  <!-- остаток центра -->
  <path d="M11 10 L13 11 L12 13 L10 12 Z" />

  <!-- осколки -->
  <path d="M7.5 11 L9 12.5 L7.2 13.4 L6.5 12 Z" />
  <path d="M15.5 11 L17.2 12 L16 13.5 L14.5 12.2 Z" />

  <path d="M10.2 7.5 L12 8.2 L11.2 9.8 L9.7 9 Z" />
  <path d="M13.8 7.8 L15.2 9 L14 10 L12.8 8.7 Z" />

  <path d="M10.5 15 L12.2 15.5 L11.5 17 L9.8 16.2 Z" />
  <path d="M14 15.5 L15.8 16.2 L14.8 17.5 L13.2 16.7 Z" />

  <!-- мелкие куски -->
  <path d="M6.5 9.8 L7.4 10.2 L7 11 L6 10.6 Z" />
  <path d="M17 9.5 L18 10 L17.5 11 L16.5 10.4 Z" />
  <path d="M17.5 14 L18.3 14.6 L17.7 15.5 L16.8 15 Z" />
  <path d="M7 15 L7.8 15.6 L7.2 16.3 L6.3 15.7 Z" />

  <!-- крест поверх (перечёркивание) -->
  <line x1="6" y1="6" x2="18" y2="18"
        stroke="currentColor" stroke-width="1.5" stroke-linecap="round" />
  <line x1="18" y1="6" x2="6" y2="18"
        stroke="currentColor" stroke-width="1.5" stroke-linecap="round" />
</svg>